<?xml version="1.0" standalone="no"?>
<!DOCTYPE svg PUBLIC "-//W3C//DTD SVG 20010904//EN"
 "http://www.w3.org/TR/2001/REC-SVG-20010904/DTD/svg10.dtd">
<svg version="1.0" xmlns="http://www.w3.org/2000/svg"
 width="347.000000pt" height="347.000000pt" viewBox="0 0 347.000000 347.000000"
 preserveAspectRatio="xMidYMid meet">
<metadata>
Created by potrace 1.14, written by Peter Selinger 2001-2017
</metadata>
<g transform="translate(0.000000,347.000000) scale(0.100000,-0.100000)"
fill="#000000" stroke="none">
<path d="M493 2783 c-25 -9 -12 -57 42 -162 53 -102 175 -359 175 -369 0 -2
-16 20 -37 49 -110 162 -208 261 -305 307 -72 35 -147 43 -167 18 -19 -23 2
-46 100 -109 120 -78 202 -149 316 -275 53 -59 103 -108 112 -110 9 -2 54 -10
101 -18 219 -40 398 -107 471 -176 20 -19 49 -54 64 -79 15 -24 43 -58 62 -74
l33 -31 -40 -44 c-23 -25 -50 -54 -60 -66 -10 -11 -24 -33 -31 -47 -7 -15 -15
-25 -18 -23 -4 3 -6 -42 -5 -98 0 -89 4 -108 23 -140 23 -36 84 -76 117 -76
28 0 84 -23 85 -35 1 -5 0 -20 -1 -32 -2 -29 5 -29 48 3 66 51 77 137 23 184
-37 32 -45 76 -20 103 10 11 22 41 25 67 6 42 9 47 48 63 56 23 59 23 107 -22
26 -25 63 -47 101 -60 129 -44 268 -193 327 -352 23 -60 28 -64 131 -103 36
-13 151 -66 255 -118 105 -51 242 -111 305 -133 63 -21 129 -46 145 -56 17 -9
50 -28 75 -43 60 -35 97 -35 106 1 4 14 3 33 -3 42 -16 27 -111 86 -179 111
-35 14 -64 28 -64 33 0 4 4 6 9 3 15 -10 134 -19 234 -19 72 1 104 5 122 17
49 32 20 66 -78 92 -54 14 -68 16 -192 30 -38 4 -73 9 -77 10 -5 1 -23 3 -40
4 -18 2 32 6 112 11 161 8 200 18 200 49 0 15 -13 27 -47 42 -41 18 -66 21
-196 20 -82 -1 -148 0 -146 2 2 2 33 6 69 10 166 16 257 69 163 95 -35 10
-244 8 -261 -3 -4 -2 -32 -7 -62 -11 -30 -4 -59 -9 -65 -12 -5 -2 -2 2 8 11
11 8 35 17 55 21 49 8 183 75 196 97 13 21 -7 46 -42 51 -25 4 -115 -7 -153
-18 -17 -5 -14 1 13 19 107 75 47 131 -81 75 -55 -24 -60 -24 -33 1 12 11 28
33 36 49 13 25 13 31 -1 51 -13 19 -22 22 -59 17 -25 -2 -70 -20 -104 -40 -33
-20 -60 -34 -60 -31 0 2 14 23 30 46 51 70 34 126 -33 107 -23 -6 -33 -5 -41
7 -16 21 -44 24 -88 8 l-36 -12 16 28 c25 44 -4 57 -72 33 -22 -7 -41 -11 -43
-9 -6 6 99 98 122 106 23 8 52 -3 190 -71 132 -65 199 -81 392 -96 82 -6 118
0 126 21 4 10 -7 21 -34 33 l-40 17 84 13 c96 13 204 53 243 89 25 24 25 26 9
45 -10 10 -24 19 -31 19 -7 0 -63 -16 -126 -36 -74 -24 -143 -38 -200 -43
-100 -7 -103 0 -8 18 103 20 198 87 159 112 -20 12 -23 12 -89 -16 -119 -50
-207 -68 -305 -62 -107 7 -189 25 -316 71 -52 18 -114 37 -139 41 -25 4 -54 9
-65 11 -46 10 -223 12 -265 4 -27 -5 -49 -5 -55 1 -15 15 -43 10 -98 -17 l-52
-26 38 38 c22 22 45 51 53 67 13 25 13 28 -3 34 -10 4 -36 -4 -65 -20 l-47
-27 24 47 c29 54 32 88 8 97 -12 5 -34 -11 -76 -54 -32 -34 -60 -60 -62 -58
-1 2 9 28 24 58 32 66 52 129 48 150 -9 49 -51 53 -101 9 l-35 -30 16 40 c29
73 -3 117 -52 71 l-22 -21 5 51 c4 46 3 50 -16 50 -13 0 -32 -15 -48 -37 -16
-21 -30 -41 -33 -45 -4 -4 -4 15 -3 43 6 78 -35 106 -77 53 -13 -16 -21 -21
-22 -13 -3 55 -34 91 -69 82 -39 -10 -77 -90 -99 -208 -8 -46 -9 -41 -11 60
-2 61 -4 115 -5 120 -12 72 -19 96 -35 110 -10 9 -23 14 -29 10 -16 -10 -39
-102 -46 -185 -8 -84 -15 -104 -16 -44 -2 123 -26 250 -53 281 -41 48 -69 6
-68 -102 l1 -50 -23 62 c-32 86 -51 113 -81 113 -50 0 -53 -44 -16 -230 10
-52 18 -96 17 -98 -2 -1 -15 31 -31 70 -82 211 -154 310 -212 291z"/>
</g>
</svg>
