<svg width="21" height="21" viewBox="0 0 21 21" fill="none" xmlns="http://www.w3.org/2000/svg">
<path d="M10.2389 18.0778C14.7157 18.0778 18.3449 14.6745 18.3449 10.4763C18.3449 6.27813 14.7157 2.87482 10.2389 2.87482C5.76202 2.87482 2.13281 6.27813 2.13281 10.4763C2.13281 14.6745 5.76202 18.0778 10.2389 18.0778Z" fill="#A34D00"/>
<path d="M8.86405 4.90186C12.0486 4.03311 15.3055 5.7706 16.1016 8.956C16.8978 12.069 14.9436 15.3268 11.7591 16.2679C8.57455 17.1367 5.31764 15.3992 4.5215 12.2138C3.72537 9.10079 5.67952 5.843 8.86405 4.90186Z" fill="white"/>
<path opacity="0.8" d="M10.3115 20.3221C15.7876 20.3221 20.2269 15.9788 20.2269 10.6211C20.2269 5.26338 15.7876 0.920105 10.3115 0.920105C4.83531 0.920105 0.395996 5.26338 0.395996 10.6211C0.395996 15.9788 4.83531 20.3221 10.3115 20.3221Z" fill="url(#paint0_linear)"/>
<path opacity="0.6" d="M5.75182 4.75708C4.66619 5.77061 5.75182 8.88361 8.50209 7.14612C9.87723 6.27738 11.8314 6.78415 13.2065 7.65289C14.5817 8.52164 15.5949 5.77061 14.075 4.32271C12.7723 3.16438 9.15348 1.57168 5.75182 4.75708Z" fill="#FFF0D2"/>
<path d="M20.2991 10.6211C20.2991 10.4763 20.2991 10.2591 20.2991 10.1143C20.0096 15.182 15.6671 19.5981 10.3837 19.5981C5.1003 19.5981 0.757764 15.182 0.468262 10.1143C0.468262 10.2591 0.468262 10.4763 0.468262 10.6211C0.468262 15.9784 4.88318 20.3221 10.3837 20.3221C15.8119 20.2497 20.2991 15.906 20.2991 10.6211Z" fill="#FCFF92"/>
<path d="M20.2982 10.6211C20.2982 10.7659 20.2982 10.9831 20.2982 11.1278C20.0086 6.06017 15.6662 1.64406 10.3827 1.64406C5.09933 1.64406 0.756787 6.06017 0.467285 11.1278C0.467285 10.9831 0.467285 10.7659 0.467285 10.6211C0.467285 5.26383 4.8822 0.920105 10.3827 0.920105C15.8109 0.920105 20.2982 5.26383 20.2982 10.6211Z" fill="#BB8514"/>
<defs>
<linearGradient id="paint0_linear" x1="10.3419" y1="19.9511" x2="10.3419" y2="1.73672" gradientUnits="userSpaceOnUse">
<stop stop-color="#F9BD55"/>
<stop offset="0.3919" stop-color="#DDA549"/>
<stop offset="0.7498" stop-color="#CA9641"/>
<stop offset="1" stop-color="#C3903E"/>
</linearGradient>
</defs>
</svg>
