<svg width="618" height="619" viewBox="0 0 618 619" fill="none" xmlns="http://www.w3.org/2000/svg">
<path fill-rule="evenodd" clip-rule="evenodd" d="M308.997 18.9664C148.55 18.9664 18.483 149.034 18.483 309.48C18.483 469.926 148.55 599.994 308.997 599.994C469.443 599.994 599.51 469.926 599.51 309.48C599.51 149.034 469.443 18.9664 308.997 18.9664ZM308.996 57.1427C169.634 57.1427 56.6592 170.118 56.6592 309.48C56.6592 448.842 169.634 561.817 308.996 561.817C448.358 561.817 561.334 448.842 561.334 309.48C561.334 170.118 448.358 57.1427 308.996 57.1427Z" fill="#2274BF"/>
<path d="M309 35.6328C157.737 35.6328 35.0444 158.325 35.0444 309.588C35.0444 460.852 157.662 583.544 309 583.544C460.338 583.544 582.955 460.926 582.955 309.588C582.955 158.251 460.263 35.6328 309 35.6328ZM309 576.401C161.606 576.401 42.1872 456.983 42.1872 309.588C42.1872 162.194 161.606 42.7756 309 42.7756C456.394 42.7756 575.813 162.194 575.813 309.588C575.813 456.983 456.394 576.401 309 576.401Z" fill="url(#paint0_linear)"/>
<path opacity="0.25" d="M309 27.374C153.123 27.374 26.8599 153.712 26.8599 309.588C26.8599 465.465 153.198 591.728 309 591.728C464.802 591.728 591.14 465.39 591.14 309.588C591.14 153.786 464.802 27.374 309 27.374ZM309 587.19C155.728 587.19 31.3985 462.935 31.3985 309.588C31.3985 156.242 155.653 31.9871 309 31.9871C462.346 31.9871 586.601 156.242 586.601 309.588C586.601 462.935 462.272 587.19 309 587.19Z" fill="#31C1FF"/>
<path d="M309 47.9095C164.507 47.9095 47.3208 165.096 47.3208 309.588C47.3208 454.081 164.507 571.267 309 571.267C453.492 571.267 570.678 454.081 570.678 309.588C570.678 165.096 453.492 47.9095 309 47.9095ZM309 568.737C165.846 568.737 49.8505 452.742 49.8505 309.588C49.8505 166.435 165.846 50.4392 309 50.4392C452.153 50.4392 568.149 166.435 568.149 309.588C568.149 452.742 452.153 568.737 309 568.737Z" fill="url(#paint1_linear)"/>
<path d="M309 50.4392C165.846 50.4392 49.8506 166.435 49.8506 309.588C49.8506 452.742 165.846 568.737 309 568.737C452.153 568.737 568.149 452.742 568.149 309.588C568.149 166.435 452.153 50.4392 309 50.4392ZM309 561.148C170.013 561.148 57.4398 448.501 57.4398 309.588C57.4398 170.676 170.013 57.954 309 57.954C447.986 57.954 560.56 170.602 560.56 309.588C560.56 448.575 447.986 561.148 309 561.148Z" fill="url(#paint2_linear)"/>
<path d="M309 40.097C160.118 40.097 39.5088 160.78 39.5088 309.588C39.5088 458.396 160.192 579.08 309 579.08C457.808 579.08 578.491 458.396 578.491 309.588C578.491 160.78 457.808 40.097 309 40.097ZM309 568.737C165.847 568.737 49.8509 452.742 49.8509 309.588C49.8509 166.435 165.847 50.4392 309 50.4392C452.153 50.4392 568.149 166.435 568.149 309.588C568.149 452.742 452.153 568.737 309 568.737Z" fill="url(#paint3_linear)"/>
<path d="M309 45.4542C163.094 45.4542 44.8657 163.682 44.8657 309.588C44.8657 455.494 163.094 573.722 309 573.722C454.906 573.722 573.134 455.494 573.134 309.588C573.134 163.682 454.832 45.4542 309 45.4542ZM309 568.737C165.847 568.737 49.8508 452.742 49.8508 309.588C49.8508 166.435 165.847 50.4392 309 50.4392C452.153 50.4392 568.149 166.435 568.149 309.588C568.149 452.742 452.153 568.737 309 568.737Z" fill="#B7FFFF"/>
<path d="M309 0.588562C138.317 0.588562 0 138.906 0 309.588C0 480.271 138.317 618.588 309 618.588C479.682 618.588 617.999 480.271 617.999 309.588C617.999 138.906 479.682 0.588562 309 0.588562ZM309 597.606C149.924 597.606 20.9819 468.664 20.9819 309.588C20.9819 150.513 149.924 21.5705 309 21.5705C468.075 21.5705 597.018 150.513 597.018 309.588C597.018 468.664 468.075 597.606 309 597.606Z" fill="url(#paint4_linear)"/>
<path d="M309 0.588562C138.317 0.588562 0 138.906 0 309.588C0 480.271 138.317 618.588 309 618.588C479.682 618.588 617.999 480.271 617.999 309.588C617.999 138.906 479.682 0.588562 309 0.588562ZM309 609.362C143.451 609.362 9.22609 475.137 9.22609 309.588C9.22609 144.039 143.451 9.81466 309 9.81466C474.549 9.81466 608.773 144.039 608.773 309.588C608.773 475.137 474.549 609.362 309 609.362Z" fill="url(#paint5_linear)"/>
<path d="M309 18.9664C148.51 18.9664 18.3779 149.099 18.3779 309.588C18.3779 470.078 148.51 600.21 309 600.21C469.489 600.21 599.622 470.078 599.622 309.588C599.622 149.099 469.489 18.9664 309 18.9664ZM309 594.704C151.487 594.704 23.8094 467.102 23.8094 309.588C23.8094 152.075 151.487 24.3979 309 24.3979C466.513 24.3979 594.19 152.075 594.19 309.588C594.19 467.102 466.513 594.704 309 594.704Z" fill="#B7F2FF"/>
<defs>
<linearGradient id="paint0_linear" x1="308.998" y1="42.3391" x2="308.998" y2="562.334" gradientUnits="userSpaceOnUse">
<stop stop-color="#00194B"/>
<stop offset="0.0760262" stop-color="#00034C"/>
<stop offset="1" stop-color="#001A5C"/>
</linearGradient>
<linearGradient id="paint1_linear" x1="308.994" y1="44.6418" x2="308.994" y2="559.416" gradientUnits="userSpaceOnUse">
<stop stop-color="#511B21"/>
<stop offset="0.0727119" stop-color="#5A321D"/>
<stop offset="0.183" stop-color="#665019"/>
<stop offset="0.2781" stop-color="#6D6216"/>
<stop offset="0.3467" stop-color="#706815"/>
<stop offset="0.5104" stop-color="#8C7625"/>
<stop offset="0.6953" stop-color="#A58233"/>
<stop offset="0.8639" stop-color="#B5893C"/>
<stop offset="1" stop-color="#BA8C3F"/>
</linearGradient>
<linearGradient id="paint2_linear" x1="308.994" y1="50.4332" x2="308.994" y2="568.724" gradientUnits="userSpaceOnUse">
<stop stop-color="#1F1B51"/>
<stop offset="0.0727119" stop-color="#1D2E5A"/>
<stop offset="0.183" stop-color="#193C66"/>
<stop offset="0.2781" stop-color="#16436D"/>
<stop offset="0.3467" stop-color="#153470"/>
<stop offset="0.5104" stop-color="#25488C"/>
<stop offset="0.6953" stop-color="#3338A5"/>
<stop offset="0.8639" stop-color="#3C65B5"/>
<stop offset="1" stop-color="#3F5ABA"/>
</linearGradient>
<linearGradient id="paint3_linear" x1="308.994" y1="34.4512" x2="308.994" y2="576.099" gradientUnits="userSpaceOnUse">
<stop stop-color="#39C8F5"/>
<stop offset="0.0635238" stop-color="#5BD0F5"/>
<stop offset="0.1504" stop-color="#84E0F4"/>
<stop offset="0.2296" stop-color="#A2EFF4"/>
<stop offset="0.2977" stop-color="#B4E8F4"/>
<stop offset="0.3467" stop-color="#BAF1F4"/>
<stop offset="0.40625" stop-color="#B6F4ED"/>
<stop offset="0.5073" stop-color="#89F2EC"/>
<stop offset="0.6491" stop-color="#66D0F1"/>
<stop offset="0.7821" stop-color="#4DF1F1"/>
<stop offset="0.9027" stop-color="#3DD0F0"/>
<stop offset="1" stop-color="#38F0E5"/>
</linearGradient>
<linearGradient id="paint4_linear" x1="308.994" y1="-5.85147" x2="308.994" y2="615.139" gradientUnits="userSpaceOnUse">
<stop stop-color="#39DEF5"/>
<stop offset="0.0635238" stop-color="#5BC7F5"/>
<stop offset="0.1504" stop-color="#84CCF4"/>
<stop offset="0.2296" stop-color="#A2DBF4"/>
<stop offset="0.2977" stop-color="#B4ECF4"/>
<stop offset="0.3467" stop-color="#BAE6F4"/>
<stop offset="0.4413" stop-color="#94E3F4"/>
<stop offset="0.5729" stop-color="#659EF3"/>
<stop offset="0.6987" stop-color="#40B3F3"/>
<stop offset="0.8152" stop-color="#26C1F2"/>
<stop offset="0.9192" stop-color="#16B0F2"/>
<stop offset="1" stop-color="#10A1F2"/>
</linearGradient>
<linearGradient id="paint5_linear" x1="162.969" y1="37.2025" x2="452.686" y2="577.613" gradientUnits="userSpaceOnUse">
<stop stop-color="#00A8DE"/>
<stop offset="0.0488024" stop-color="#C3ECF9"/>
<stop offset="0.1126" stop-color="#00A8DE"/>
<stop offset="0.1725" stop-color="white"/>
<stop offset="0.2266" stop-color="#D1EEFB"/>
<stop offset="0.2731" stop-color="#E3F9FE"/>
<stop offset="0.3066" stop-color="#BBF3FF"/>
<stop offset="0.3462" stop-color="#B8FFE5"/>
<stop offset="0.4226" stop-color="#80DCFA"/>
<stop offset="0.528" stop-color="#00A8DE"/>
<stop offset="0.6571" stop-color="#00A8DE"/>
<stop offset="0.7259" stop-color="#DBF6FF"/>
<stop offset="0.8173" stop-color="#00A8DE"/>
<stop offset="0.8174" stop-color="#35ACD2"/>
<stop offset="0.84375" stop-color="#7EC1D7"/>
<stop offset="0.9338" stop-color="#00A8DE"/>
<stop offset="1" stop-color="#039ECF"/>
</linearGradient>
</defs>
</svg>
