<svg width="88" height="152" viewBox="0 0 88 152" fill="none" xmlns="http://www.w3.org/2000/svg">
<g filter="url(#filter0_d)">
<path d="M45.1703 138.879L11.2432 52.8619L77.2697 52.1765L45.1703 138.879Z" fill="#0C0996"/>
<path d="M45.1706 134.538L12.7285 52.8619H75.5566L45.1706 134.538Z" fill="#E0A630"/>
<path d="M75.5563 52.8619L45.1704 134.538L45.0562 134.424V52.8619H75.5563Z" fill="url(#paint0_linear)"/>
<path d="M45.0564 52.8619V134.424L12.7285 52.8619H45.0564Z" fill="url(#paint1_linear)"/>
<path opacity="0.6" d="M16.498 62.3432L45.1705 134.538V132.139L17.6404 60.5154L16.498 62.3432Z" fill="url(#paint2_linear)"/>
<path opacity="0.6" d="M73.3859 58.6877L45.1704 134.538V132.139L72.8147 56.2888L73.3859 58.6877Z" fill="url(#paint3_linear)"/>
<path d="M44.1424 74.1091C64.3309 74.1091 80.6969 57.7431 80.6969 37.5546C80.6969 17.3661 64.3309 1.00012 44.1424 1.00012C23.9539 1.00012 7.58789 17.3661 7.58789 37.5546C7.58789 57.7431 23.9539 74.1091 44.1424 74.1091Z" fill="#093096"/>
<path d="M44.1423 72.5098C63.4475 72.5098 79.0975 56.8599 79.0975 37.5546C79.0975 18.2494 63.4475 2.59937 44.1423 2.59937C24.837 2.59937 9.18701 18.2494 9.18701 37.5546C9.18701 56.8599 24.837 72.5098 44.1423 72.5098Z" fill="url(#paint4_linear)"/>
<path d="M67.469 40.254C69.5742 27.3656 60.8327 15.211 47.9443 13.1058C35.056 11.0006 22.9013 19.7421 20.7961 32.6305C18.691 45.5188 27.4324 57.6735 40.3208 59.7787C53.2092 61.8838 65.3638 53.1423 67.469 40.254Z" fill="#0014C6"/>
<path d="M44.1422 62.5716C57.3909 62.5716 68.1311 51.9848 68.1311 38.9254C68.1311 25.866 57.3909 15.2792 44.1422 15.2792C30.8935 15.2792 20.1533 25.866 20.1533 38.9254C20.1533 51.9848 30.8935 62.5716 44.1422 62.5716Z" fill="#6CA6FC"/>
<path d="M53.3302 59.5779C65.3684 54.5161 71.0239 40.6538 65.962 28.6156C60.9002 16.5774 47.0379 10.9219 34.9997 15.9838C22.9615 21.0456 17.3061 34.9079 22.3679 46.9461C27.4297 58.9843 41.292 64.6397 53.3302 59.5779Z" fill="#021148"/>
<path d="M36.2604 59.3731L24.1517 49.2064L21.4102 33.5565L29.2922 19.8485L44.1425 14.4796L58.9927 19.8485L66.989 33.5565L64.2475 49.2064L52.0245 59.3731H36.2604Z" fill="#9B0B23"/>
<path opacity="0.8" d="M38.0878 54.918L28.6065 46.9217L26.436 34.813L32.6046 24.0752L44.2564 19.8485L55.7939 24.0752L61.9624 34.813L59.9062 46.9217L50.4249 54.918H38.0878Z" fill="#EDDA2F"/>
<path d="M40.0299 48.7494L36.2603 59.3731L48.3689 48.7494H40.0299Z" fill="#D2D60D"/>
<path d="M48.3689 48.7494L52.0244 59.3731H36.2603L48.3689 48.7494Z" fill="#BC960D"/>
<path d="M52.0246 59.3731L54.6519 43.3805L48.3691 48.7494L52.0246 59.3731Z" fill="#F9E31E"/>
<path d="M64.2474 49.2064L56.1369 35.1557L54.6519 43.3805L64.2474 49.2064Z" fill="#FCD81D"/>
<path d="M58.9925 19.8485L56.1367 35.1557L66.9888 33.5565L58.9925 19.8485Z" fill="#FFEE50"/>
<path d="M58.9928 19.8485L52.0246 27.9591L44.1426 14.4796L58.9928 19.8485Z" fill="#FCFF64"/>
<path d="M36.3745 27.9591L44.1423 25.1032V14.4796L36.3745 27.9591Z" fill="#FFD748"/>
<path d="M32.1478 35.1557L36.3744 27.9591L29.292 19.8485L32.1478 35.1557Z" fill="#F5F91E"/>
<path d="M21.4102 33.5565L32.148 35.1557L24.1517 49.2064L21.4102 33.5565Z" fill="#9B8615"/>
<path d="M33.6327 43.3805L24.1514 49.2064L36.26 59.3731L33.6327 43.3805Z" fill="#A49512"/>
<path d="M32.1477 35.1557L24.1514 49.2064L33.6327 43.3805L32.1477 35.1557Z" fill="#BCAA0C"/>
<path d="M44.1426 14.4796V25.1032L52.0246 27.9591L44.1426 14.4796Z" fill="#E7EA54"/>
<path d="M29.292 19.8485L36.3744 27.9591L44.1423 14.4796L29.292 19.8485Z" fill="#F9F47D"/>
<path d="M29.2922 19.8485L32.148 35.1557L21.4102 33.5565L29.2922 19.8485Z" fill="#D3BF0F"/>
<path d="M58.9926 19.8485L52.0244 27.9591L56.1368 35.1557L58.9926 19.8485Z" fill="#F2E7AD"/>
<path d="M66.9888 33.5565L56.1367 35.1557L64.2472 49.2064L66.9888 33.5565Z" fill="#EAF4AB"/>
<path d="M54.6518 43.3805L52.0244 59.3731L64.2473 49.2064L54.6518 43.3805Z" fill="#DDC02A"/>
<path d="M33.6328 43.3805L36.2602 59.3731L40.0299 48.7494L33.6328 43.3805Z" fill="#AD8D1C"/>
<path opacity="0.4" d="M36.4888 45.7794L42.7716 42.1239L44.2566 48.7494H40.03L36.4888 45.7794Z" fill="#B39911"/>
<path opacity="0.4" d="M52.0246 45.6651L50.4253 40.5247L55.4515 39.1539L54.6519 43.3805L52.0246 45.6651Z" fill="#E9E238"/>
<path opacity="0.4" d="M48.0264 26.474L48.9402 31.9572L53.8522 31.1576L52.0245 27.9591L48.0264 26.474Z" fill="#E9E238"/>
<path opacity="0.4" d="M40.8297 26.3598V32.5284L34.5469 31.0433L36.3746 27.9591L40.8297 26.3598Z" fill="#E9E238"/>
<path d="M24.1514 49.2064L30.8911 50.8056L36.26 59.3731L24.1514 49.2064Z" fill="#9E9812"/>
<path opacity="0.3" d="M32.8333 38.8112L38.545 36.0696L32.1479 35.1557L32.8333 38.8112Z" fill="#CC9C1F"/>
<path d="M36.2603 59.3731L45.5131 57.5453L52.0244 59.3731H36.2603Z" fill="#9E860A"/>
<path d="M24.1517 48.7494L24.7229 40.5247L21.4102 33.5565L24.1517 48.7494Z" fill="#ADA718"/>
<path d="M29.2922 19.8485L26.7791 27.9591L21.4102 33.5565L29.2922 19.8485Z" fill="#B29812"/>
<path d="M44.1423 14.4796L36.8314 19.8485H29.292L44.1423 14.4796Z" fill="#F9F6B9"/>
<path d="M58.9928 19.8485H52.0246L44.1426 14.4796L58.9928 19.8485Z" fill="#EFF246"/>
<path d="M58.9927 19.8485L61.5058 27.8448L66.989 33.5565L58.9927 19.8485Z" fill="#EDE635"/>
<path d="M66.9891 33.5565L64.2476 40.5247V49.2064L66.9891 33.5565Z" fill="#EADB54"/>
<path d="M52.0244 59.3731L57.3934 52.4049L64.2473 49.2064L52.0244 59.3731Z" fill="#C1BA11"/>
<path d="M40.0299 48.7494L36.2603 59.3731H36.8314L40.4869 48.7494H40.0299Z" fill="#E8D054"/>
<path d="M48.3691 48.7494L52.0246 59.3731L52.3673 59.0304L48.7118 48.4067L48.3691 48.7494Z" fill="#FFF383"/>
<path opacity="0.8" d="M24.1513 49.2064L33.6327 43.4947V43.0378L24.0371 48.8637L24.1513 49.2064Z" fill="#FFFA83"/>
<path opacity="0.8" d="M32.148 35.1557L21.4102 33.5565L21.5244 33.2138L32.0338 34.6988L32.148 35.1557Z" fill="#FFE55F"/>
<path opacity="0.8" d="M54.6519 43.3805L64.2474 49.2064V48.7494L54.7661 43.0378L54.6519 43.3805Z" fill="#FFEB83"/>
<path d="M56.1367 35.1557L66.9888 33.5565L66.7603 33.2138L55.9082 34.813L56.1367 35.1557Z" fill="#FFF4BD"/>
<path d="M58.9926 19.8485L52.0244 27.9591L52.1386 28.1875L59.2211 20.077L58.9926 19.8485Z" fill="#FFF8BD"/>
<path opacity="0.6" d="M44.1426 14.4796V25.1032L44.371 25.2175V14.5938L44.1426 14.4796Z" fill="#FFF8BD"/>
<path opacity="0.5" d="M29.292 19.8485L36.3744 27.959L36.7171 27.8448L29.5205 19.7343L29.292 19.8485Z" fill="#F6FFBD"/>
<path opacity="0.3" d="M33.6328 43.3805L34.0897 43.152L40.1441 48.2925L40.0299 48.7494L33.6328 43.3805Z" fill="#FFFBD7"/>
<path opacity="0.2" d="M40.144 48.2925H48.3688V48.7494H40.0298L40.144 48.2925Z" fill="#F2FFBD"/>
<path opacity="0.3" d="M54.6519 43.3805L54.3092 43.0378L48.3691 48.2925V48.7494L54.6519 43.3805Z" fill="#FFF8D2"/>
<path opacity="0.3" d="M32.1479 35.1557L32.6049 35.27L36.7173 28.1875L36.3746 27.9591L32.1479 35.1557Z" fill="#FFFDCC"/>
<path opacity="0.2" d="M32.1479 35.1557L33.633 43.3805L34.0899 43.152L32.6049 35.27L32.1479 35.1557Z" fill="#FEFFD7"/>
<path opacity="0.2" d="M46.1985 41.0958C46.1985 41.0958 45.5131 37.6689 48.1404 36.4123L44.9419 36.8692L46.1985 41.0958Z" fill="#FFF0BD"/>
<path opacity="0.2" d="M44.1426 48.2925C44.1426 48.2925 47.3411 47.4929 46.7699 43.2663L48.255 48.2925H44.1426Z" fill="#FFF4BD"/>
</g>
<defs>
<filter id="filter0_d" x="0.587891" y="0.00012207" width="87.109" height="151.879" filterUnits="userSpaceOnUse" color-interpolation-filters="sRGB">
<feFlood flood-opacity="0" result="BackgroundImageFix"/>
<feColorMatrix in="SourceAlpha" type="matrix" values="0 0 0 0 0 0 0 0 0 0 0 0 0 0 0 0 0 0 127 0" result="hardAlpha"/>
<feOffset dy="6"/>
<feGaussianBlur stdDeviation="3.5"/>
<feColorMatrix type="matrix" values="0 0 0 0 0 0 0 0 0 0 0 0 0 0 0 0 0 0 0.25 0"/>
<feBlend mode="normal" in2="BackgroundImageFix" result="effect1_dropShadow"/>
<feBlend mode="normal" in="SourceGraphic" in2="effect1_dropShadow" result="shape"/>
</filter>
<linearGradient id="paint0_linear" x1="68.563" y1="136.124" x2="59.3178" y2="53.2827" gradientUnits="userSpaceOnUse">
<stop stop-color="#5E45F5"/>
<stop offset="0.1434" stop-color="#4168F2"/>
<stop offset="0.3508" stop-color="#3749E8"/>
<stop offset="0.597" stop-color="#264DD9"/>
<stop offset="0.8709" stop-color="#1C0EC3"/>
<stop offset="1" stop-color="#0214B8"/>
</linearGradient>
<linearGradient id="paint1_linear" x1="37.6441" y1="136.008" x2="28.9338" y2="53.1676" gradientUnits="userSpaceOnUse">
<stop stop-color="#5E45F5"/>
<stop offset="0.1434" stop-color="#4168F2"/>
<stop offset="0.3508" stop-color="#3749E8"/>
<stop offset="0.597" stop-color="#264DD9"/>
<stop offset="0.8709" stop-color="#1C0EC3"/>
<stop offset="1" stop-color="#0214B8"/>
</linearGradient>
<linearGradient id="paint2_linear" x1="39.5285" y1="77.6934" x2="20.5072" y2="125.892" gradientUnits="userSpaceOnUse">
<stop stop-color="#1A6CB8"/>
<stop offset="1" stop-color="#42D2F2"/>
</linearGradient>
<linearGradient id="paint3_linear" x1="67.8339" y1="74.4476" x2="46.6731" y2="124.363" gradientUnits="userSpaceOnUse">
<stop stop-color="#1A6CB8"/>
<stop offset="1" stop-color="#42D2F2"/>
</linearGradient>
<linearGradient id="paint4_linear" x1="36.8317" y1="3.36164" x2="51.5549" y2="72.07" gradientUnits="userSpaceOnUse">
<stop stop-color="#293BDF"/>
<stop offset="0.00262401" stop-color="#2B53DF"/>
<stop offset="0.03125" stop-color="#293BDF"/>
<stop offset="0.0779649" stop-color="#5F86EB"/>
<stop offset="0.1485" stop-color="#88CCF3"/>
<stop offset="0.2123" stop-color="#A6D2FA"/>
<stop offset="0.2671" stop-color="#B8DCFE"/>
<stop offset="0.3066" stop-color="#BED8FF"/>
<stop offset="0.3738" stop-color="#AFCFFE"/>
<stop offset="0.5032" stop-color="#87C4FD"/>
<stop offset="0.6801" stop-color="#4885FA"/>
<stop offset="0.8212" stop-color="#11A5F8"/>
<stop offset="0.8675" stop-color="#1142F1"/>
<stop offset="0.945" stop-color="#4610DF"/>
<stop offset="1" stop-color="#410FD0"/>
</linearGradient>
</defs>
</svg>
