<svg width="212" height="44" viewBox="0 0 212 44" fill="none" xmlns="http://www.w3.org/2000/svg">
<path d="M57.8237 10.9147L65.5358 9.07129V35.6009H57.8237V10.9147ZM67.1554 26.3078V18.0173L73.2479 9.07129L80.7324 9.99298L72.5153 21.5649L81.7698 35.6009H73.1322L67.1554 26.3078Z" fill="url(#paint0_linear)"/>
<path d="M90.161 9.07129H90.8165L93.8628 19.6369L89.4283 35.6009H81.7163L90.161 9.07129ZM98.8371 30.8965H93.3192L94.9387 24.9582H97.1019L92.5517 9.07129H99.6083L108.053 35.6009H100.187L98.8371 30.8965Z" fill="url(#paint1_linear)"/>
<path d="M110.618 10.9147L118.331 9.07129V35.6009H110.618V10.9147ZM120.872 26.3078V18.0173L126.043 9.07129L133.527 9.99298L125.31 21.5649L134.564 35.6009H125.927L120.872 26.3078Z" fill="url(#paint2_linear)"/>
<path d="M142.956 9.07129H143.611L146.658 19.6369L142.223 35.6009H134.511L142.956 9.07129ZM151.632 30.8965H146.114L147.734 24.9582H149.897L145.347 9.07129L152.403 10.9147L160.848 35.6009H152.982L151.632 30.8965Z" fill="url(#paint3_linear)"/>
<path d="M163.413 10.9147L171.125 9.07129V35.6009H163.413V10.9147ZM173.666 29.7011H173.975C175.235 29.7011 175.2 29.6497 175.714 29.5469C176.254 29.4184 176.652 29.1356 176.909 28.6986C177.192 28.2358 177.346 27.5032 177.372 26.5006C177.423 25.2153 177.449 23.8271 177.449 22.3361C177.449 20.8708 177.423 19.4698 177.372 18.133C177.321 17.1304 177.153 16.3978 176.871 15.9351C176.614 15.4723 176.189 15.1895 175.598 15.0867C175.007 15.0096 174.159 14.971 173.053 14.971H172.745V9.07129H173.053C175.11 9.07129 176.819 9.16126 178.182 9.34121C179.57 9.52116 180.714 9.80394 181.614 10.1895C182.488 10.5751 183.182 11.1021 183.696 11.7705C184.21 12.4389 184.583 13.2744 184.814 14.277C185.02 15.1767 185.148 16.2435 185.2 17.4775C185.277 18.6857 185.315 20.3052 185.315 22.3361C185.315 24.3926 185.277 26.025 185.2 27.2333C185.148 28.4415 185.02 29.4955 184.814 30.3952C184.583 31.3978 184.21 32.2333 183.696 32.9017C183.182 33.57 182.488 34.097 181.614 34.4826C180.714 34.8682 179.57 35.151 178.182 35.331C176.819 35.5109 176.031 35.6009 173.975 35.6009H173.666V29.7011Z" fill="url(#paint4_linear)"/>
<path d="M200.419 35.9094C197.72 35.9094 195.638 35.6909 194.172 35.2538C192.707 34.8168 191.627 34.1099 190.933 33.133C190.291 32.2333 189.892 31.0893 189.738 29.7011C189.584 28.313 189.507 26.2435 189.507 23.4929V10.9147L197.219 9.07129V25.0353C197.219 25.9865 197.244 26.8991 197.296 27.7731C197.347 28.4672 197.463 28.9685 197.643 29.277C197.823 29.5855 198.131 29.7783 198.568 29.8554C198.954 29.9582 199.571 30.0096 200.419 30.0096H201.306C201.512 30.0096 201.743 29.9839 202 29.9325V35.8708C201.82 35.8965 201.563 35.9094 201.229 35.9094H200.419ZM203.62 9.07129L211.332 10.9147V23.4929C211.332 26.0122 211.28 27.9145 211.177 29.1999C211.075 30.4852 210.792 31.5649 210.329 32.4389C209.815 33.4415 209.031 34.2127 207.977 34.7526C206.923 35.2924 205.471 35.6394 203.62 35.7937V9.07129Z" fill="url(#paint5_linear)"/>
<path d="M1.17797 42.1052L11.6949 32.2068C11.8364 32.0736 12.0234 31.9995 12.2177 31.9995H16.7447C17.154 31.9995 17.4905 32.3227 17.5068 32.7317C17.5562 33.9652 17.7174 35.2166 17.986 36.4508C18.0657 36.8175 17.8668 37.1878 17.5173 37.3238L1.97745 43.3714C1.88707 43.4066 1.79344 43.4235 1.70107 43.4235C1.44549 43.4235 1.19903 43.2946 1.05587 43.0679C0.860837 42.759 0.912082 42.3554 1.17797 42.1052Z" fill="url(#paint6_linear)"/>
<path d="M15.0621 31.9995L3.7183 42.6938L1.97738 43.3712C1.887 43.4064 1.79337 43.4233 1.701 43.4233C1.44542 43.4233 1.19896 43.2944 1.05581 43.0677C0.860861 42.7589 0.912105 42.3553 1.1779 42.1051L11.6948 32.2068C11.8363 32.0736 12.0233 31.9995 12.2176 31.9995H15.0621Z" fill="url(#paint7_linear)"/>
<path d="M40.2315 10.7986C41.0371 10.2232 42.7027 9.66717 44.8062 12.4092C44.9992 12.6607 45.0147 13.005 44.8478 13.2746C44.8333 13.2979 44.8178 13.3202 44.8012 13.3414C44.2895 14.0832 43.4347 14.6074 42.2598 14.9004C41.4229 15.1091 40.714 15.1201 40.6842 15.1205C40.6811 15.1205 40.6779 15.1205 40.6748 15.1205C40.4743 15.1205 40.2817 15.0415 40.1388 14.9004C39.9936 14.7572 39.9121 14.5617 39.9121 14.3578V11.4193C39.9121 11.1729 40.0311 10.9417 40.2315 10.7986Z" fill="#8C6E1A"/>
<path d="M40.0293 7.10543C39.6109 7.11781 39.2589 6.78288 39.2483 6.36181C39.2378 5.94065 39.5708 5.59081 39.9919 5.58032C40.194 5.57535 44.9655 5.48967 46.6447 8.30916C47.6136 9.93585 47.3366 12.0987 45.8213 14.7375C45.6851 14.9746 45.4326 15.1204 45.1599 15.1204C45.1542 15.1204 45.1487 15.1204 45.143 15.1202C44.864 15.1141 44.6106 14.9561 44.4823 14.7081C44.1468 14.0595 42.9428 12.1485 41.8483 11.8846C41.5833 11.8207 41.358 11.8685 41.1181 12.0397C40.7752 12.2847 40.2988 12.2051 40.0542 11.8624C39.8093 11.5196 39.8887 11.0432 40.2314 10.7985C40.3405 10.7206 40.4525 10.6525 40.5668 10.594L40.1105 7.1048C40.0616 7.1048 40.0333 7.10534 40.0293 7.10543Z" fill="#B29340"/>
<path d="M25.5353 36.5684H27.987L26.3971 32.7526C26.235 32.3637 26.419 31.9172 26.8078 31.7551C27.1964 31.5932 27.6432 31.7769 27.8053 32.1658L29.6397 36.5683H33.5391C33.9604 36.5683 34.3018 36.9098 34.3018 37.331C34.3018 37.7522 33.9604 38.0937 33.5391 38.0937H29.1355C29.1341 38.0937 29.1328 38.0939 29.1314 38.0939L29.1287 38.0937H25.5352C25.1139 38.0937 24.7725 37.7521 24.7725 37.331C24.7724 36.9098 25.114 36.5684 25.5353 36.5684Z" fill="black"/>
<path d="M31.2791 0.576538L36.3227 3.97896L29.3177 9.19599L26.7959 6.92772H30.4385L29.3177 3.97896L32.9603 5.11309L31.2791 0.576538Z" fill="url(#paint8_linear)"/>
<path d="M14.2422 29.6141L16.6663 27.1475C16.8863 26.9236 17.2205 26.8352 17.512 26.9516C17.8726 27.0954 18.0627 27.4793 17.9713 27.8456C17.5942 29.356 17.4377 30.9966 17.506 32.7224C17.5099 32.8203 17.499 32.9193 17.4661 33.0115C17.3519 33.3314 17.0584 33.5252 16.7442 33.5252H14.5146H12.0125H10.2944L11.6949 32.207L14.2422 29.6141Z" fill="url(#paint9_linear)"/>
<path d="M13.4412 33.5252H10.2944L11.6949 32.207L14.2423 29.6141L16.6664 27.1475C16.8864 26.9236 17.2206 26.8352 17.5121 26.9516C17.8727 27.0954 18.0628 27.4793 17.9714 27.8456C17.8389 28.3765 17.7351 28.9243 17.6573 29.4854C17.4045 29.7022 17.3544 29.8907 17.0412 30.123L13.4412 33.5252Z" fill="url(#paint10_linear)"/>
<path d="M17.4962 24.6396C19.2851 20.8418 22.5766 18.0535 27.279 16.3482L29.086 14.5095V11.2958C29.086 7.13623 32.4701 3.75208 36.6297 3.75208C39.2809 3.75208 41.4378 5.909 41.4378 8.56011V20.0577C41.4378 27.4837 35.3965 33.5251 27.9705 33.5251H26.6905C24.3757 35.6061 21.5177 37.6831 18.1117 39.2964C18.0084 39.3453 17.8968 39.3698 17.7851 39.3698C17.6868 39.3698 17.5885 39.3508 17.4955 39.3127C17.2971 39.2313 17.142 39.0699 17.0685 38.8683C16.9566 38.5617 14.3666 31.283 17.4962 24.6396Z" fill="url(#paint11_linear)"/>
<path d="M17.4962 24.6396C19.2851 20.8418 22.5766 18.0535 27.279 16.3482L29.086 14.5095V11.2958C29.086 7.13623 32.4701 3.75208 36.6298 3.75208C37.1016 3.75208 37.5574 3.82158 37.9886 3.94883C34.648 4.72408 32.1501 7.72268 32.1501 11.2957V14.5094L30.3432 16.3481C25.6408 18.0533 22.3493 20.8418 20.5603 24.6395C17.8704 30.3497 19.406 36.5293 19.9615 38.3474C19.3639 38.6778 18.7473 38.9952 18.1116 39.2963C18.0084 39.3452 17.8967 39.3697 17.785 39.3697C17.6867 39.3697 17.5884 39.3507 17.4954 39.3126C17.297 39.2312 17.1419 39.0698 17.0684 38.8682C16.9566 38.5617 14.3666 31.283 17.4962 24.6396Z" fill="url(#paint12_linear)"/>
<path d="M16.6362 26.9308C16.6581 26.8575 16.6799 26.7841 16.7027 26.7107C16.7979 26.7272 16.8942 26.7445 16.992 26.7629C23.4422 27.9725 32.9045 25.0276 34.2928 24.5773C32.7236 26.9831 30.2191 30.3126 26.7064 33.5252H26.6908C24.376 35.6062 21.518 37.6832 18.112 39.2966C18.0088 39.3455 17.8972 39.3699 17.7855 39.3699C17.6871 39.3699 17.5888 39.351 17.4958 39.3128C17.2974 39.2314 17.1423 39.0701 17.0689 38.8684C16.9698 38.597 14.9273 32.8556 16.6362 26.9308Z" fill="url(#paint13_linear)"/>
<path d="M15.9772 31.0498C24.6014 32.5953 30.0829 29.2533 32.0035 27.7812C30.5991 29.5842 28.8389 31.5762 26.7082 33.5251H26.6911C24.3763 35.6062 21.5183 37.6832 18.1123 39.2965C18.0091 39.3454 17.8973 39.3699 17.7856 39.3699C17.6873 39.3699 17.589 39.3509 17.496 39.3128C17.2976 39.2313 17.1425 39.07 17.069 38.8684C16.9935 38.6613 15.788 35.2737 15.9772 31.0498Z" fill="url(#paint14_linear)"/>
<path d="M41.4365 20.1869C41.123 20.1704 40.783 20.1275 40.6734 20.1275C40.6216 20.1275 40.5696 20.1221 40.5178 20.1114C35.9598 19.1614 32.7764 15.8528 32.7764 12.0654C32.7764 10.4414 33.3572 8.86934 34.456 7.51902C35.4974 6.23946 36.9549 5.21631 38.6726 4.55918C38.9056 4.46022 39.1719 4.4848 39.3839 4.62226C39.4127 4.64242 39.4414 4.66257 39.4698 4.68327C39.5005 4.70586 39.5307 4.729 39.5608 4.75223C39.6001 4.78259 39.6396 4.81287 39.6779 4.84432C39.703 4.86483 39.7269 4.88634 39.7516 4.9074C39.8223 4.96795 39.8912 5.0305 39.9584 5.09493C39.9855 5.12105 40.0132 5.1469 40.0397 5.17356C40.0712 5.20519 40.1013 5.23782 40.132 5.27026C40.1626 5.30289 40.1931 5.33579 40.2228 5.36923C40.2489 5.3986 40.2746 5.42833 40.3 5.45834C40.336 5.50091 40.3712 5.54429 40.4056 5.58812C40.4233 5.61062 40.4414 5.63286 40.4587 5.65563C40.6258 5.87615 40.7738 6.10968 40.9004 6.3546C40.9007 6.35533 40.9012 6.35605 40.9014 6.35668C41.1164 6.77269 41.2702 7.21987 41.3568 7.68396C41.3589 7.69534 41.3608 7.70682 41.3629 7.71821C41.3766 7.79431 41.3879 7.87076 41.3979 7.94767C41.4004 7.96729 41.4032 7.9869 41.4054 8.00669C41.4136 8.07764 41.4198 8.14903 41.4249 8.2207C41.4264 8.24257 41.4287 8.26426 41.4299 8.28614C41.435 8.37714 41.4382 8.46852 41.4382 8.56007V19.3626V20.0577C41.4381 20.101 41.4368 20.1439 41.4365 20.1869Z" fill="url(#paint15_linear)"/>
<path d="M34.456 7.51902C35.4974 6.23946 36.9549 5.21631 38.6725 4.55918C38.9055 4.46022 39.1718 4.4848 39.3838 4.62226C39.4126 4.64242 39.4413 4.66257 39.4697 4.68327C39.5004 4.70586 39.5306 4.729 39.5607 4.75223C39.6 4.78259 39.6395 4.81287 39.6778 4.84432C39.7029 4.86483 39.7268 4.88634 39.7515 4.9074C39.8222 4.96795 39.8911 5.03049 39.9583 5.09493C39.9854 5.12105 40.0131 5.1469 40.0396 5.17356C40.0514 5.18549 40.0628 5.19787 40.0744 5.21007C38.9626 5.82247 38.0054 6.60477 37.2614 7.51893C36.1626 8.86915 35.5818 10.4413 35.5818 12.0653C35.5818 15.3049 37.912 18.1927 41.4381 19.5552V20.0576C41.4381 20.1007 41.4368 20.1436 41.4365 20.1868C41.123 20.1702 40.7829 20.1273 40.6734 20.1273C40.6216 20.1273 40.5696 20.122 40.5178 20.1112C35.9598 19.1613 32.7764 15.8527 32.7764 12.0652C32.7764 10.4413 33.3571 8.86925 34.456 7.51902Z" fill="#BEC1C9"/>
<path d="M36.99 10.6219C37.4758 10.6219 37.8711 10.2273 37.8711 9.74234C37.8711 9.2572 37.4758 8.86279 36.99 8.86279C36.5042 8.86279 36.1089 9.25738 36.1089 9.74234C36.1088 10.2273 36.5041 10.6219 36.99 10.6219Z" fill="#2B2B2B"/>
<path d="M17.0587 38.8411C17.0568 38.8358 17.0548 38.8303 17.0526 38.8238C17.0509 38.8194 17.0491 38.8139 17.0472 38.8089C17.045 38.8025 17.0426 38.7959 17.0401 38.7885C17.0378 38.782 17.0354 38.7749 17.0329 38.7678C17.0304 38.7604 17.0278 38.7527 17.025 38.7447C17.022 38.7359 17.0188 38.7267 17.0156 38.7171C17.0132 38.71 17.0106 38.7023 17.0081 38.6946C17.0042 38.6832 17.0003 38.6714 16.9962 38.6589C16.9938 38.6519 16.9913 38.6443 16.9888 38.6369C16.9841 38.6226 16.9794 38.6083 16.9744 38.5929C16.9728 38.5878 16.9709 38.5821 16.9692 38.5769C16.9421 38.4931 16.9107 38.3929 16.8758 38.2768C16.875 38.2741 16.8742 38.2715 16.8733 38.2688C16.8651 38.2412 16.8566 38.2127 16.848 38.1835C16.8466 38.1785 16.845 38.1736 16.8437 38.1686C16.8354 38.1401 16.8268 38.1106 16.818 38.0805C16.8162 38.0741 16.8143 38.0677 16.8125 38.0612C16.8037 38.0302 16.7946 37.9984 16.7855 37.9657C16.7843 37.9614 16.7831 37.957 16.7819 37.9527C16.2527 36.0642 15.3025 31.5537 16.6356 26.9313C16.6356 26.931 16.6356 26.9308 16.6357 26.9306C16.6575 26.8573 16.6794 26.784 16.7023 26.7107C16.7974 26.7272 16.8937 26.7445 16.9916 26.7628C17.84 26.922 18.741 27.0087 19.6684 27.0391C18.2791 31.9862 19.4831 36.7826 19.9613 38.3476C19.785 38.4451 19.6064 38.5411 19.4268 38.6364C19.3696 38.6665 19.3121 38.6965 19.2546 38.7265C19.1207 38.7963 18.9861 38.8655 18.8504 38.9341C18.7934 38.9628 18.7365 38.9917 18.6792 39.0203C18.4914 39.1136 18.3026 39.2062 18.1115 39.2966C18.0083 39.3455 17.8967 39.37 17.785 39.37C17.6866 39.37 17.5883 39.3511 17.4953 39.3129C17.2969 39.2315 17.1418 39.0702 17.0684 38.8685C17.0667 38.8642 17.0645 38.858 17.0619 38.8506C17.0611 38.848 17.0598 38.8443 17.0587 38.8411Z" fill="url(#paint16_linear)"/>
<path d="M17.0559 38.8335C17.0527 38.8246 17.0491 38.814 17.045 38.8026C17.0434 38.7979 17.0419 38.7934 17.0401 38.7882C17.0279 38.753 17.0124 38.7077 16.9943 38.6527C16.9927 38.6479 16.9911 38.643 16.9895 38.638C16.9809 38.612 16.9717 38.5839 16.9621 38.554C16.9611 38.5508 16.9601 38.5477 16.959 38.5444C16.9369 38.4754 16.912 38.396 16.8852 38.3071C16.8837 38.3025 16.8825 38.2979 16.881 38.2933C16.8397 38.1564 16.7936 37.9973 16.7446 37.8175C16.744 37.8153 16.7435 37.8129 16.7428 37.8108C16.693 37.6276 16.6402 37.4233 16.5866 37.1996C16.5864 37.1989 16.5861 37.1982 16.586 37.1975C16.3339 36.1466 16.0618 34.6702 15.9807 32.964C15.9806 32.961 15.9804 32.9578 15.9802 32.9548C15.9632 32.5939 15.9548 32.2227 15.9568 31.8432C15.9568 31.8357 15.9569 31.8283 15.9569 31.8207C15.9585 31.5673 15.9649 31.3101 15.9764 31.0497C17.0417 31.2406 18.059 31.3567 19.0275 31.4112C18.9428 34.5972 19.6281 37.2569 19.9612 38.3475C19.7849 38.445 19.6063 38.541 19.4266 38.6363C19.3695 38.6665 19.312 38.6964 19.2545 38.7264C19.1206 38.7962 18.986 38.8654 18.8503 38.934C18.7933 38.9627 18.7364 38.9916 18.6791 39.0202C18.4913 39.1135 18.3025 39.2061 18.1114 39.2966C18.0082 39.3455 17.8966 39.3699 17.7849 39.3699C17.6865 39.3699 17.5882 39.351 17.4952 39.3128C17.2968 39.2314 17.1417 39.0701 17.0683 38.8684C17.0663 38.8629 17.0629 38.8539 17.0594 38.8439C17.0585 38.8408 17.0572 38.8369 17.0559 38.8335Z" fill="url(#paint17_linear)"/>
<defs>
<linearGradient id="paint0_linear" x1="92.7209" y1="9.4455" x2="193.749" y2="39.137" gradientUnits="userSpaceOnUse">
<stop stop-color="#F8CA00"/>
<stop offset="1" stop-color="#C95C08"/>
</linearGradient>
<linearGradient id="paint1_linear" x1="92.7207" y1="9.4455" x2="193.749" y2="39.137" gradientUnits="userSpaceOnUse">
<stop stop-color="#F8CA00"/>
<stop offset="1" stop-color="#C95C08"/>
</linearGradient>
<linearGradient id="paint2_linear" x1="92.7211" y1="9.4455" x2="193.749" y2="39.137" gradientUnits="userSpaceOnUse">
<stop stop-color="#F8CA00"/>
<stop offset="1" stop-color="#C95C08"/>
</linearGradient>
<linearGradient id="paint3_linear" x1="92.7211" y1="9.4455" x2="193.749" y2="39.137" gradientUnits="userSpaceOnUse">
<stop stop-color="#F8CA00"/>
<stop offset="1" stop-color="#C95C08"/>
</linearGradient>
<linearGradient id="paint4_linear" x1="92.721" y1="9.4455" x2="193.749" y2="39.137" gradientUnits="userSpaceOnUse">
<stop stop-color="#F8CA00"/>
<stop offset="1" stop-color="#C95C08"/>
</linearGradient>
<linearGradient id="paint5_linear" x1="92.7208" y1="9.4455" x2="193.749" y2="39.137" gradientUnits="userSpaceOnUse">
<stop stop-color="#F8CA00"/>
<stop offset="1" stop-color="#C95C08"/>
</linearGradient>
<linearGradient id="paint6_linear" x1="9.47073" y1="31.9995" x2="9.47073" y2="43.4235" gradientUnits="userSpaceOnUse">
<stop stop-color="#0D32A4"/>
<stop offset="1" stop-color="#268DEC"/>
</linearGradient>
<linearGradient id="paint7_linear" x1="8.00005" y1="31.9995" x2="8.00005" y2="43.4233" gradientUnits="userSpaceOnUse">
<stop stop-color="#0D32A4"/>
<stop offset="1" stop-color="#268DEC"/>
</linearGradient>
<linearGradient id="paint8_linear" x1="31.5593" y1="0.576538" x2="31.5593" y2="9.19599" gradientUnits="userSpaceOnUse">
<stop stop-color="#44AC2C"/>
<stop offset="1" stop-color="#19600D"/>
</linearGradient>
<linearGradient id="paint9_linear" x1="14.1442" y1="26.9003" x2="14.1442" y2="33.5252" gradientUnits="userSpaceOnUse">
<stop stop-color="#0D32A4"/>
<stop offset="1" stop-color="#268DEC"/>
</linearGradient>
<linearGradient id="paint10_linear" x1="14.1443" y1="26.9003" x2="14.1443" y2="33.5252" gradientUnits="userSpaceOnUse">
<stop stop-color="#0D32A4"/>
<stop offset="1" stop-color="#268DEC"/>
</linearGradient>
<linearGradient id="paint11_linear" x1="28.6969" y1="3.75208" x2="28.6969" y2="39.3698" gradientUnits="userSpaceOnUse">
<stop stop-color="#DC9207"/>
<stop offset="0.550667" stop-color="#C65308"/>
<stop offset="1" stop-color="#E49708"/>
</linearGradient>
<linearGradient id="paint12_linear" x1="32.6931" y1="5.79353" x2="17.7225" y2="26.8885" gradientUnits="userSpaceOnUse">
<stop stop-color="#E6CB3E"/>
<stop offset="1" stop-color="#FED51D"/>
</linearGradient>
<linearGradient id="paint13_linear" x1="25.1249" y1="24.5773" x2="25.1249" y2="39.3699" gradientUnits="userSpaceOnUse">
<stop stop-color="#0D32A4"/>
<stop offset="1" stop-color="#268DEC"/>
</linearGradient>
<linearGradient id="paint14_linear" x1="23.9804" y1="27.7812" x2="23.9804" y2="39.3699" gradientUnits="userSpaceOnUse">
<stop stop-color="#0D32A4"/>
<stop offset="1" stop-color="#268DEC"/>
</linearGradient>
<linearGradient id="paint15_linear" x1="37.1073" y1="4.49902" x2="37.1073" y2="20.1869" gradientUnits="userSpaceOnUse">
<stop stop-color="#D8DBE2"/>
<stop offset="1" stop-color="#CED1D9"/>
</linearGradient>
<linearGradient id="paint16_linear" x1="17.9589" y1="26.7107" x2="17.9589" y2="39.37" gradientUnits="userSpaceOnUse">
<stop stop-color="#0D32A4"/>
<stop offset="1" stop-color="#268DEC"/>
</linearGradient>
<linearGradient id="paint17_linear" x1="17.9589" y1="31.0497" x2="17.9589" y2="39.3699" gradientUnits="userSpaceOnUse">
<stop stop-color="#0D32A4"/>
<stop offset="1" stop-color="#268DEC"/>
</linearGradient>
</defs>
</svg>
